<svg xmlns="http://www.w3.org/2000/svg" width="1440" height="900" viewBox="0 0 1440 900" role="img" aria-labelledby="title desc">
  <title id="title">Claim и ликвидность</title>
  <desc id="desc">Блок-схема Claim после наступления условий Smart Cycle с развилками по условиям и ликвидности.</desc>
  <defs>
    <linearGradient id="bg" x1="0" x2="1" y1="0" y2="1"><stop offset="0" stop-color="#ffffff"/><stop offset="1" stop-color="#eff6ff"/></linearGradient>
    <linearGradient id="ok" x1="0" x2="1"><stop offset="0" stop-color="#10b981"/><stop offset="1" stop-color="#14b8a6"/></linearGradient>
    <linearGradient id="warn" x1="0" x2="1"><stop offset="0" stop-color="#fb923c"/><stop offset="1" stop-color="#f97316"/></linearGradient>
    <filter id="shadow" x="-20%" y="-20%" width="140%" height="150%"><feDropShadow dx="0" dy="14" stdDeviation="16" flood-color="#0f172a" flood-opacity=".13"/></filter>
    <marker id="arrow" markerWidth="14" markerHeight="14" refX="10" refY="7" orient="auto"><path d="M2,2 L12,7 L2,12 Z" fill="#0f766e"/></marker>
    <style>
      .title{font:900 42px Inter,Arial,sans-serif;fill:#0f172a}
      .subtitle{font:700 19px Inter,Arial,sans-serif;fill:#475569}
      .step{font:900 21px Inter,Arial,sans-serif;fill:#0f172a}
      .body{font:700 15px Inter,Arial,sans-serif;fill:#475569}
      .label{font:900 15px Inter,Arial,sans-serif;fill:#0f766e}
      .no{font:900 15px Inter,Arial,sans-serif;fill:#dc2626}
      .line{stroke:#0f766e;stroke-width:4;fill:none;marker-end:url(#arrow)}
      .badline{stroke:#ef4444;stroke-width:4;fill:none;marker-end:url(#arrow)}
    </style>
  </defs>
  <rect width="1440" height="900" rx="34" fill="url(#bg)"/>
  <text x="76" y="86" class="title">Схема 2. Claim после наступления условий</text>
  <text x="76" y="126" class="subtitle">Claim — это запрос помощи по правилам цикла. Исполнение зависит от условий order и доступной ликвидности.</text>

  <g filter="url(#shadow)">
    <g transform="translate(90 190)">
      <rect width="300" height="110" rx="22" fill="#fff" stroke="#bfdbfe"/>
      <text x="28" y="43" class="step">Условия цикла</text>
      <text x="28" y="75" class="body">Срок завершен или появилась</text>
      <text x="28" y="96" class="body">доступная Daily-часть.</text>
    </g>
    <g transform="translate(460 190)">
      <rect width="300" height="110" rx="22" fill="#fff" stroke="#bfdbfe"/>
      <text x="28" y="43" class="step">Frontend</text>
      <text x="28" y="75" class="body">Показывает Claim, сумму,</text>
      <text x="28" y="96" class="body">gas, сеть и предупреждение.</text>
    </g>
    <g transform="translate(830 190)">
      <rect width="300" height="110" rx="22" fill="#fff" stroke="#bfdbfe"/>
      <text x="28" y="43" class="step">Wallet signature</text>
      <text x="28" y="75" class="body">Участник сам подтверждает</text>
      <text x="28" y="96" class="body">Claim в кошельке.</text>
    </g>
  </g>
  <path class="line" d="M390 245H454"/>
  <path class="line" d="M760 245H824"/>

  <path class="line" d="M980 300V366"/>
  <g filter="url(#shadow)">
    <g transform="translate(790 382)">
      <rect width="380" height="112" rx="22" fill="#fff" stroke="#bbf7d0"/>
      <text x="30" y="43" class="step">Flow.claim(orderId)</text>
      <text x="30" y="75" class="body">Проверяет owner, order, time,</text>
      <text x="30" y="96" class="body">rewards, notClaimed и ограничения.</text>
    </g>
    <g transform="translate(510 548)">
      <path d="M190 0 L380 82 L190 164 L0 82 Z" fill="#fff" stroke="#fbbf24" stroke-width="2"/>
      <text x="91" y="76" class="step">Условия</text>
      <text x="89" y="103" class="step">выполнены?</text>
    </g>
    <g transform="translate(1080 548)">
      <path d="M150 0 L300 82 L150 164 L0 82 Z" fill="#fff" stroke="#fbbf24" stroke-width="2"/>
      <text x="66" y="76" class="step">Ликвидность</text>
      <text x="98" y="103" class="step">доступна?</text>
    </g>
  </g>
  <path class="line" d="M890 494L740 552"/>
  <path class="line" d="M890 630H1072"/>
  <text x="930" y="613" class="label">Да</text>

  <g filter="url(#shadow)">
    <g transform="translate(90 592)">
      <rect width="320" height="116" rx="22" fill="#fff7ed" stroke="#fed7aa"/>
      <text x="30" y="43" class="step">Claim отклонен</text>
      <text x="30" y="75" class="body">Условия еще не выполнены</text>
      <text x="30" y="96" class="body">или контракт возвращает отказ.</text>
    </g>
  </g>
  <path class="badline" d="M510 630H418"/>
  <text x="448" y="613" class="no">Нет</text>

  <g filter="url(#shadow)">
    <g transform="translate(1000 746)">
      <rect width="340" height="104" rx="22" fill="#ecfdf5" stroke="#bbf7d0"/>
      <text x="28" y="42" class="step">Transfer + event</text>
      <text x="28" y="73" class="body">PositionHandler withdraw, перевод</text>
      <text x="28" y="94" class="body">пользователю, fee и Claimed event.</text>
    </g>
    <g transform="translate(520 746)">
      <rect width="360" height="104" rx="22" fill="#fff7ed" stroke="#fed7aa"/>
      <text x="28" y="42" class="step">Ожидание / пояснение</text>
      <text x="28" y="73" class="body">Claim не исполняется в ожидаемый</text>
      <text x="28" y="94" class="body">момент, нужен статус системы.</text>
    </g>
  </g>
  <path class="line" d="M1230 712V738"/>
  <text x="1252" y="730" class="label">Да</text>
  <path class="badline" d="M1088 684L884 746"/>
  <text x="978" y="718" class="no">Нет</text>

  <rect x="90" y="790" width="380" height="54" rx="27" fill="#fee2e2"/>
  <text x="124" y="824" class="body">Нет условий или нет ликвидности ≠ гарантированный сбой навсегда. Нужен понятный статус.</text>
</svg>
