<svg width="1600" height="900" viewBox="0 0 1600 900" fill="none" xmlns="http://www.w3.org/2000/svg">
  <defs>
    <linearGradient id="bg" x1="0" y1="0" x2="1600" y2="900" gradientUnits="userSpaceOnUse">
      <stop stop-color="#FFF8F1"/>
      <stop offset="0.58" stop-color="#FFE3C7"/>
      <stop offset="1" stop-color="#FFC069"/>
    </linearGradient>
    <radialGradient id="glow" cx="0" cy="0" r="1" gradientUnits="userSpaceOnUse" gradientTransform="translate(1025 455) rotate(26) scale(420 300)">
      <stop stop-color="#FFF8E8"/>
      <stop offset="0.55" stop-color="#FFD28A" stop-opacity="0.55"/>
      <stop offset="1" stop-color="#FF8A00" stop-opacity="0"/>
    </radialGradient>
    <filter id="softShadow" x="-40%" y="-40%" width="180%" height="180%" color-interpolation-filters="sRGB">
      <feDropShadow dx="0" dy="28" stdDeviation="28" flood-color="#9C3B00" flood-opacity="0.18"/>
    </filter>
    <filter id="cardShadow" x="-20%" y="-20%" width="140%" height="140%" color-interpolation-filters="sRGB">
      <feDropShadow dx="0" dy="18" stdDeviation="22" flood-color="#B75B10" flood-opacity="0.13"/>
    </filter>
    <style>
      .title { font-family: Inter, Arial, sans-serif; font-size: 94px; font-weight: 900; fill: #2A0C02; letter-spacing: 0; }
      .lead { font-family: Inter, Arial, sans-serif; font-size: 34px; font-weight: 800; fill: #8A2F0B; letter-spacing: 0; }
      .body { font-family: Inter, Arial, sans-serif; font-size: 28px; font-weight: 650; fill: #2A0C02; letter-spacing: 0; }
      .small { font-family: Inter, Arial, sans-serif; font-size: 22px; font-weight: 800; fill: #FB5A00; letter-spacing: 0; }
      .label { font-family: Inter, Arial, sans-serif; font-size: 24px; font-weight: 850; fill: #2A0C02; letter-spacing: 0; }
      .tiny { font-family: Inter, Arial, sans-serif; font-size: 18px; font-weight: 750; fill: #95533A; letter-spacing: 0; }
    </style>
  </defs>

  <rect width="1600" height="900" rx="0" fill="url(#bg)"/>
  <rect width="1600" height="900" fill="url(#glow)"/>

  <g opacity="0.28">
    <path d="M0 740C180 704 256 791 426 740C586 692 636 582 806 621C1012 668 1098 823 1302 760C1421 724 1490 663 1600 690V900H0V740Z" fill="white"/>
    <path d="M1238 53C1318 23 1394 17 1469 50C1527 76 1576 75 1600 66V0H1112C1135 35 1174 77 1238 53Z" fill="white"/>
    <circle cx="1385" cy="126" r="68" fill="white"/>
    <circle cx="1471" cy="168" r="88" fill="white"/>
    <circle cx="1313" cy="172" r="54" fill="white"/>
  </g>

  <g transform="translate(70 48)">
    <circle cx="22" cy="22" r="10" fill="#FF8A00"/>
    <circle cx="48" cy="10" r="10" fill="#FFC038"/>
    <circle cx="74" cy="22" r="10" fill="#FF8A00"/>
    <circle cx="74" cy="54" r="10" fill="#FFC038"/>
    <circle cx="48" cy="68" r="10" fill="#FF8A00"/>
    <circle cx="22" cy="54" r="10" fill="#FFC038"/>
    <text x="106" y="28" class="small" style="font-size:32px;font-weight:950;">ATLAS</text>
    <text x="106" y="61" class="small" style="font-size:28px;font-weight:900;">SYSTEM</text>
  </g>

  <g transform="translate(78 178)">
    <text class="title">
      <tspan x="0" y="0">Как это</tspan>
      <tspan x="0" y="106">работает</tspan>
    </text>
    <text class="lead" x="0" y="260">Кошелёк → smart-contract → прозрачное распределение</text>
    <rect x="0" y="306" width="612" height="148" rx="34" fill="white" fill-opacity="0.68" stroke="#FFFFFF" filter="url(#cardShadow)"/>
    <text class="body">
      <tspan x="34" y="358">Smart-contract — это программа</tspan>
      <tspan x="34" y="398">с заранее записанными правилами.</tspan>
      <tspan x="34" y="438">Она выполняет их автоматически.</tspan>
    </text>
  </g>

  <g transform="translate(812 154)" filter="url(#softShadow)">
    <path d="M90 320C90 198 189 99 311 99H483C605 99 704 198 704 320C704 442 605 541 483 541H311C189 541 90 442 90 320Z" fill="#FFF5E8" fill-opacity="0.76" stroke="white" stroke-width="3"/>
    <circle cx="397" cy="319" r="151" fill="#FF8A00" fill-opacity="0.11"/>
    <circle cx="397" cy="319" r="106" fill="#FFF7EC" stroke="#FF8A00" stroke-width="4"/>
    <rect x="341" y="257" width="112" height="132" rx="22" fill="#FF7A00"/>
    <rect x="357" y="277" width="80" height="12" rx="6" fill="#FFE8BF"/>
    <rect x="357" y="306" width="62" height="12" rx="6" fill="#FFE8BF"/>
    <rect x="357" y="335" width="72" height="12" rx="6" fill="#FFE8BF"/>
    <path d="M429 381C460 350 459 299 427 268" stroke="#FFFFFF" stroke-width="8" stroke-linecap="round"/>
    <path d="M365 381C334 350 335 299 367 268" stroke="#FFFFFF" stroke-width="8" stroke-linecap="round"/>
    <g>
      <circle cx="161" cy="319" r="62" fill="#FFFFFF" stroke="#FFD48B" stroke-width="3"/>
      <path d="M129 322C129 299 143 283 163 283C184 283 198 299 198 322V356H129V322Z" fill="#FF8A00"/>
      <rect x="121" y="341" width="84" height="54" rx="16" fill="#FFB12A"/>
      <circle cx="163" cy="367" r="8" fill="#FFFFFF"/>
      <text x="102" y="435" class="label">Кошелёк</text>
    </g>
    <g>
      <circle cx="633" cy="319" r="62" fill="#FFFFFF" stroke="#FFD48B" stroke-width="3"/>
      <path d="M603 318L626 341L668 295" stroke="#FF7A00" stroke-width="14" stroke-linecap="round" stroke-linejoin="round"/>
      <text x="559" y="435" class="label">Правила</text>
    </g>
    <path d="M226 319H286" stroke="#FF8A00" stroke-width="8" stroke-linecap="round"/>
    <path d="M508 319H568" stroke="#FF8A00" stroke-width="8" stroke-linecap="round"/>
    <path d="M286 319L266 303M286 319L266 335" stroke="#FF8A00" stroke-width="8" stroke-linecap="round"/>
    <path d="M568 319L548 303M568 319L548 335" stroke="#FF8A00" stroke-width="8" stroke-linecap="round"/>
    <text x="288" y="512" class="tiny">все действия фиксируются в блокчейне</text>
  </g>

  <g transform="translate(76 796)">
    <rect width="170" height="44" rx="22" fill="white" fill-opacity="0.66" stroke="#FF9B57"/>
    <text x="46" y="29" class="small">atlas-system.io</text>
    <circle cx="24" cy="22" r="12" fill="#FFF5EA" stroke="#FF7A00"/>
    <path d="M19 26L29 16M29 16H22M29 16V23" stroke="#FF7A00" stroke-width="2.5" stroke-linecap="round" stroke-linejoin="round"/>
  </g>
</svg>
