<svg id="e9QgNeTuwnC1" xmlns="http://www.w3.org/2000/svg" xmlns:xlink="http://www.w3.org/1999/xlink" viewBox="0 0 180 60" shape-rendering="geometricPrecision" text-rendering="geometricPrecision" project-id="218ebbf9608c40a48b2ddf48cb9cb651" export-id="9d73d6d1cf1249b2832bccb224453d03" cached="false">
<style><![CDATA[
#e9QgNeTuwnC3_ts {animation: e9QgNeTuwnC3_ts__ts 3000ms linear infinite normal forwards}@keyframes e9QgNeTuwnC3_ts__ts { 0% {transform: translate(43.854389px,40px) scale(1,1)} 46.666667% {transform: translate(43.854389px,40px) scale(1,1);animation-timing-function: cubic-bezier(0.6,0.015,0.24,1.01)} 60% {transform: translate(43.854389px,40px) scale(0.961947,0.961947);animation-timing-function: cubic-bezier(0.6,0.015,0.24,1.01)} 71.333333% {transform: translate(43.854389px,40px) scale(1.046271,1.046271);animation-timing-function: cubic-bezier(0.6,0.015,0.24,1.01)} 86.666667% {transform: translate(43.854389px,40px) scale(1,1)} 100% {transform: translate(43.854389px,40px) scale(1,1)}} #e9QgNeTuwnC4_ts {animation: e9QgNeTuwnC4_ts__ts 3000ms linear infinite normal forwards}@keyframes e9QgNeTuwnC4_ts__ts { 0% {transform: translate(19.97015px,20.64285px) scale(1,1)} 50% {transform: translate(19.97015px,20.64285px) scale(1,1)} 60% {transform: translate(19.97015px,20.64285px) scale(0.7,0.7);animation-timing-function: cubic-bezier(0.49,-0.005,0.51,1)} 69% {transform: translate(19.97015px,20.64285px) scale(1.2,1.2);animation-timing-function: cubic-bezier(0.49,-0.005,0.51,1)} 76.666667% {transform: translate(19.97015px,20.64285px) scale(1,1)} 100% {transform: translate(19.97015px,20.64285px) scale(1,1)}} #e9QgNeTuwnC5_ts {animation: e9QgNeTuwnC5_ts__ts 3000ms linear infinite normal forwards}@keyframes e9QgNeTuwnC5_ts__ts { 0% {transform: translate(19.7158px,3.957585px) scale(1,1)} 26.666667% {transform: translate(19.7158px,3.957585px) scale(1,1)} 36.666667% {transform: translate(19.7158px,3.957585px) scale(0.7,0.7);animation-timing-function: cubic-bezier(0.49,-0.005,0.51,1)} 46.333333% {transform: translate(19.7158px,3.957585px) scale(1.13,1.13);animation-timing-function: cubic-bezier(0.49,-0.005,0.51,1)} 53% {transform: translate(19.7158px,3.957585px) scale(1,1)} 100% {transform: translate(19.7158px,3.957585px) scale(1,1)}} #e9QgNeTuwnC6_ts {animation: e9QgNeTuwnC6_ts__ts 3000ms linear infinite normal forwards}@keyframes e9QgNeTuwnC6_ts__ts { 0% {transform: translate(19.7158px,35.980999px) scale(1,1)} 13.333333% {transform: translate(19.7158px,35.980999px) scale(1,1)} 23.333333% {transform: translate(19.7158px,35.980999px) scale(0.7,0.7);animation-timing-function: cubic-bezier(0.49,-0.005,0.51,1)} 33.333333% {transform: translate(19.7158px,35.980999px) scale(1.141575,1.141575);animation-timing-function: cubic-bezier(0.49,-0.005,0.51,1)} 40% {transform: translate(19.7158px,35.980999px) scale(1,1)} 100% {transform: translate(19.7158px,35.980999px) scale(1,1)}} #e9QgNeTuwnC7_ts {animation: e9QgNeTuwnC7_ts__ts 3000ms linear infinite normal forwards}@keyframes e9QgNeTuwnC7_ts__ts { 0% {transform: translate(34.337549px,12.769831px) scale(1,1)} 20% {transform: translate(34.337549px,12.769831px) scale(1,1)} 30% {transform: translate(34.337549px,12.769831px) scale(0.7,0.7);animation-timing-function: cubic-bezier(0.49,-0.005,0.51,1)} 39.333333% {transform: translate(34.337549px,12.769831px) scale(1.17,1.17);animation-timing-function: cubic-bezier(0.49,-0.005,0.51,1)} 46.666667% {transform: translate(34.337549px,12.769831px) scale(1,1)} 100% {transform: translate(34.337549px,12.769831px) scale(1,1)}} #e9QgNeTuwnC8_ts {animation: e9QgNeTuwnC8_ts__ts 3000ms linear infinite normal forwards}@keyframes e9QgNeTuwnC8_ts__ts { 0% {transform: translate(33.836564px,27.886962px) scale(1,1)} 16.666667% {transform: translate(33.836564px,27.886962px) scale(1,1)} 26.666667% {transform: translate(33.836564px,27.886962px) scale(0.7,0.7);animation-timing-function: cubic-bezier(0.49,-0.005,0.51,1)} 36.333333% {transform: translate(33.836564px,27.886962px) scale(1.19,1.19);animation-timing-function: cubic-bezier(0.49,-0.005,0.51,1)} 43.666667% {transform: translate(33.836564px,27.886962px) scale(1,1)} 100% {transform: translate(33.836564px,27.886962px) scale(1,1)}} #e9QgNeTuwnC9_ts {animation: e9QgNeTuwnC9_ts__ts 3000ms linear infinite normal forwards}@keyframes e9QgNeTuwnC9_ts__ts { 0% {transform: translate(5.601228px,12.769831px) scale(1,1)} 30% {transform: translate(5.601228px,12.769831px) scale(1,1)} 40% {transform: translate(5.601228px,12.769831px) scale(0.7,0.7);animation-timing-function: cubic-bezier(0.49,-0.005,0.51,1)} 50% {transform: translate(5.601228px,12.769831px) scale(1.19,1.19);animation-timing-function: cubic-bezier(0.49,-0.005,0.51,1)} 56.666667% {transform: translate(5.601228px,12.769831px) scale(1,1)} 100% {transform: translate(5.601228px,12.769831px) scale(1,1)}} #e9QgNeTuwnC10_ts {animation: e9QgNeTuwnC10_ts__ts 3000ms linear infinite normal forwards}@keyframes e9QgNeTuwnC10_ts__ts { 0% {transform: translate(6.101228px,27.886962px) scale(1,1)} 10% {transform: translate(6.101228px,27.886962px) scale(1,1)} 18.666667% {transform: translate(6.101228px,27.886962px) scale(0.7,0.7);animation-timing-function: cubic-bezier(0.49,-0.005,0.51,1)} 28.666667% {transform: translate(6.101228px,27.886962px) scale(1.207748,1.207748);animation-timing-function: cubic-bezier(0.49,-0.005,0.51,1)} 35.333333% {transform: translate(6.101228px,27.886962px) scale(1,1)} 100% {transform: translate(6.101228px,27.886962px) scale(1,1)}}
]]></style>
<g transform="translate(-9.999738 -10)"><g id="e9QgNeTuwnC3_ts" transform="translate(43.854389,40) scale(1,1)"><g transform="translate(-19.969389,-19.969299)"><g id="e9QgNeTuwnC4_ts" transform="translate(19.97015,20.64285) scale(1,1)"><path d="M19.9701,27.3013c4.3851,0,7.9399-2.9811,7.9399-6.6585s-3.5548-6.6584-7.9399-6.6584c-4.385,0-7.9398,2.9811-7.9398,6.6584s3.5548,6.6585,7.9398,6.6585Z" transform="translate(-19.97015,-20.64285)" fill="#f50"/></g><g id="e9QgNeTuwnC5_ts" transform="translate(19.7158,3.957585) scale(1,1)"><path d="M19.7158,7.91517c3.8126,0,6.9033-1.77187,6.9033-3.95759s-3.0907-3.95758-6.9033-3.95758-6.9033,1.77187-6.9033,3.95758s3.0907,3.95759,6.9033,3.95759Z" transform="translate(-19.7158,-3.957585)" fill="#ff8000"/></g><g id="e9QgNeTuwnC6_ts" transform="translate(19.7158,35.980999) scale(1,1)"><path d="M19.7158,39.9386c3.8126,0,6.9033-1.7719,6.9033-3.9576s-3.0907-3.9576-6.9033-3.9576-6.9033,1.7719-6.9033,3.9576s3.0907,3.9576,6.9033,3.9576Z" transform="translate(-19.7158,-35.980999)" fill="#ff8000"/></g><g id="e9QgNeTuwnC7_ts" transform="translate(34.337549,12.769831) scale(1,1)"><path d="M39.2186,17.7455c-1.5164,1.5464-4.9304.5718-7.6262-2.1772-2.6958-2.7473-3.6524-6.2292-2.1359-7.77411c1.5164-1.54646,4.9304-.5718,7.6262,2.17712c2.6958,2.74739,3.6524,6.22929,2.1359,7.77419Z" transform="translate(-34.337549,-12.769831)" fill="#ffc227"/></g><g id="e9QgNeTuwnC8_ts" transform="translate(33.836564,27.886962) scale(1,1)"><path d="M28.9555,32.8626c-1.5165-1.5465-.5598-5.0268,2.1359-7.7741c2.6958-2.7474,6.1098-3.7221,7.6262-2.1772c1.5165,1.5465.5599,5.0268-2.1359,7.7742-2.6957,2.7474-6.1097,3.722-7.6262,2.1771Z" transform="translate(-33.836564,-27.886962)" fill="#ffc227"/></g><g id="e9QgNeTuwnC9_ts" transform="translate(5.601228,12.769831) scale(1,1)"><path d="M0.720152,17.7455c1.516468,1.5464,4.930468.5718,7.626228-2.1772C11.0421,12.821,11.9988,9.3391,10.4823,7.79419c-1.51648-1.54646-4.93048-.5718-7.62624,2.17712-2.695761,2.74739-3.652371,6.22929-2.135908,7.77419Z" transform="translate(-5.601228,-12.769831)" fill="#ffc227"/></g><g id="e9QgNeTuwnC10_ts" transform="translate(6.101228,27.886962) scale(1,1)"><path d="M10.9823,32.8626c1.5165-1.5465.5598-5.0268-2.13592-7.7741s-6.10976-3.7221-7.62623-2.1772c-1.516462,1.5465-.55985,5.0268,2.13591,7.7742s6.10977,3.722,7.62624,2.1771Z" transform="translate(-6.101228,-27.886962)" fill="#ffc227"/></g></g></g><path d="M55.2861,34.8691c-.907,0-1.574-.04-2.0009-.12-.4268-.0801-.6403-.1734-.6403-.2801l.8004-1.7408c.3068.0533,1.0671.1067,2.281.16c1.2273.04,2.908.0601,5.0424.0601h.3801c.5736,0,.9805-.1001,1.2206-.3002.2401-.2134.3602-.5669.3602-1.0605v-.4002c0-.4668-.1001-.8003-.3002-1.0004-.1867-.2001-.6136-.3001-1.2806-.3001h-4.6421c-1.3473,0-2.3277-.2468-2.9414-.7404-.6136-.5069-.9204-1.3273-.9204-2.4611v-.3202c0-.5869.1067-1.1272.3202-1.6207.2267-.4936.6069-.8871,1.1405-1.1806.5336-.3068,1.2672-.4602,2.201-.4602h5.4425c.9071,0,1.6408.0467,2.201.1401.5603.0934.8404.1934.8404.3001l-.4002,1.6808c-.3468-.04-1.1338-.08-2.3611-.12-1.2272-.0534-2.8746-.0801-4.9422-.0801l-.2201-.02c-.6137,0-1.0272.1267-1.2406.3802-.2134.2401-.3268.5469-.3402.9204v.3402c0,.4402.1201.7736.3602,1.0004.2535.2135.667.3202,1.2406.3202h4.442c.8537,0,1.5807.0867,2.181.2601s1.0605.4935,1.3807.9604c.3201.4536.4802,1.1272.4802,2.021v.3201c0,1.0005-.2601,1.8075-.7804,2.4211-.5069.6136-1.394.9204-2.6612.9204h-6.6431Zm19.3061,0v-4.8822l-5.8227-6.8832h3.2015l2.9614,3.7418.9204,1.2405h.2001l.9204-1.2405l2.9614-3.7418h3.2014l-.7803,1.2006-5.1224,5.7626v4.8022h-2.6412Zm14.5923,0c-.9071,0-1.574-.04-2.0009-.12-.4269-.0801-.6403-.1734-.6403-.2801l.8004-1.7408c.3068.0533,1.0671.1067,2.281.16c1.2273.04,2.908.0601,5.0423.0601h.3802c.5736,0,.9805-.1001,1.2206-.3002.2401-.2134.3601-.5669.3601-1.0605v-.4002c0-.4668-.1-.8003-.3001-1.0004-.1867-.2001-.6136-.3001-1.2806-.3001h-4.6421c-1.3473,0-2.3277-.2468-2.9414-.7404-.6136-.5069-.9204-1.3273-.9204-2.4611v-.3202c0-.5869.1067-1.1272.3202-1.6207.2267-.4936.6069-.8871,1.1405-1.1806.5336-.3068,1.2672-.4602,2.201-.4602h5.4425c.9071,0,1.6408.0467,2.201.1401.5603.0934.8404.1934.8404.3001l-.4002,1.6808c-.3468-.04-1.1338-.08-2.3611-.12-1.2272-.0534-2.8746-.0801-4.9422-.0801l-.2201-.02c-.6137,0-1.0272.1267-1.2406.3802-.2134.2401-.3268.5469-.3402.9204v.3402c0,.4402.1201.7736.3602,1.0004.2534.2135.667.3202,1.2406.3202h4.442c.8537,0,1.5807.0867,2.181.2601s1.0605.4935,1.3806.9604c.3202.4536.4803,1.1272.4803,2.021v.3201c0,1.0005-.2602,1.8075-.7804,2.4211-.5069.6136-1.394.9204-2.6612.9204h-6.6431Zm18.9055,0l-.02-9.8645h-5.202v-1.9209h13.086v1.9209h-5.222v9.8645h-2.642Zm11.873,0v-11.7654h12.445v1.9209h-9.804v2.7613h7.483v1.9809h-7.483v3.1815h9.884l.801,1.7007c0,.0534-.18.1068-.541.1601-.36.04-.98.06-1.86.06h-10.925Zm17.52,0v-10.1646l-.2-1.6008h3.041l4.523,8.0037l4.682-8.0037h2.701v11.7654h-2.641v-7.4634h-.22l-.781,1.7408-2.521,4.5221h-2.421l-2.521-4.5221-.801-1.7408h-.2v7.4634h-2.641Z" transform="translate(23.885 20.0307)" fill="#f50"/><path d="M51.4433,17.0703L58.7716,2.36366h6.5029L72.5778,17.0703h-5.3774l-1.2256-2.6762h-7.9035l-1.3757,2.6762h-5.2523Zm8.0036-6.1278h5.1273L62.1481,5.61513h-.2501L59.4469,10.9425Zm19.8019,6.1278v-11.33011h-5.9527v-3.40154h16.8326v3.40154h-6.0277v11.33011h-4.8522Zm14.6289,0l.2501-2.0009v-12.70574h4.8022v11.28014h8.854l1.501,3.1514c0,.0667-.225.1334-.676.2001-.45.05-1.225.075-2.326.075h-12.4053Zm16.8653,0l7.328-14.70664h6.503l7.303,14.70664h-5.377l-1.226-2.6762h-7.903l-1.376,2.6762h-5.252Zm8.003-6.1278h5.127l-2.426-5.32737h-.25l-2.451,5.32737Zm19.417,6.1278c-1.134,0-1.967-.05-2.501-.1501s-.8-.2167-.8-.3501l1.5-3.2265c.384.0667,1.176.1334,2.376.2001c1.201.05,2.76.0751,4.678.0751h1.975c.584,0,.976-.0834,1.176-.2502s.3-.4085.3-.7253v-.2501c0-.4002-.1-.6753-.3-.8254s-.592-.2251-1.176-.2251h-5.727c-1.684,0-2.91-.3085-3.677-.9254-.767-.63362-1.15-1.65908-1.15-3.07639v-.90041c0-.73366.133-1.40897.4-2.02591.283-.61695.758-1.10884,1.425-1.47567.667-.38351,1.585-.57526,2.752-.57526h8.303c1.018,0,1.86.05836,2.527.17508.683.11672,1.025.24178,1.025.37517l-.75,3.1014c-.467-.05002-1.351-.10004-2.651-.15007-1.284-.06669-2.918-.10004-4.903-.10004l-1.8-.02501c-.517,0-.884.07503-1.101.2251-.217.13339-.333.39184-.35.77535v.17508c0,.38351.117.65029.35.80036s.609.2251,1.126.2251h5.502c1.067,0,1.976.10839,2.726.32515.751.21676,1.326.61695,1.726,1.20054.4.56693.6,1.40893.6,2.52613v.9004c0,1.2506-.325,2.2594-.975,3.0264-.634.767-1.743,1.1505-3.327,1.1505h-9.279Z" transform="translate(23.885 20.0307)" fill="#f50"/></g></svg>
